<svg width="761" height="329" viewBox="0 0 761 329" fill="none" xmlns="http://www.w3.org/2000/svg">
<g clip-path="url(#clip0_106_4489)">
<path d="M487.858 124.329C487.753 117.234 480.811 113.974 478.232 113.005C484.993 104.31 487.81 93.7498 486.345 85.6801C484.177 88.4166 480.89 90.1551 477.215 90.1355C470.726 90.1 465.494 84.6027 465.529 77.8566C465.564 71.1104 470.849 65.6719 477.338 65.7074C481.268 65.7294 484.729 67.7631 486.848 70.8594C485.945 68.4634 484.978 66.3563 483.944 64.5651C482.275 61.6732 480.283 59.9346 478.258 58.6649C475.645 57.0255 469.599 55.2796 466.03 56.9178C466.03 56.9178 470.003 48.7636 463.402 41.0356C455.283 31.5346 438.748 36.4369 438.284 49.8962C438.174 53.0342 438.764 55.8783 440.682 58.4225C442.269 60.5272 445.089 61.6756 447.588 60.7928C450.311 59.8305 452.065 56.7513 452.206 53.8569C452.155 54.9099 449.166 56.1342 448.297 56.1232C447.074 56.1097 446.186 55.38 445.647 54.272C444.171 51.2331 445.849 47.6679 448.359 45.8644C452.531 42.8709 458.3 46.5819 459.674 51.0813C460.535 53.901 459.785 58.0993 457.768 60.308C451.077 67.6406 452.184 76.6249 452.957 78.2006C443.915 68.8833 437.871 67.6516 431.961 68.8307C436.657 61.4075 429.527 48.0878 418.03 58.0454C418.006 58.0846 417.977 58.1213 417.951 58.1605C418.556 58.7335 419.154 59.4767 419.732 60.4562C421.621 64.2369 421.977 70.7248 415.992 72.4866C402.756 76.3849 398.885 88.5169 405.506 99.099C408.5 103.878 402.341 108.059 398.946 107.597C397.216 107.358 395.918 106.757 394.952 105.883C394.929 105.971 394.909 106.058 394.885 106.149C395.38 116.083 399.924 121.693 408.215 117.56C411.798 120.27 415.605 122.425 419.228 123.905C423.807 125.771 428.838 127.263 433.983 128.171C439.088 129.142 443.849 129.387 448.251 129.032C453.527 128.672 458.579 127.468 463.024 125.187C466.579 123.526 469.751 121.425 472.528 119.02C474.002 121.181 476.94 126.882 471.274 131.947C468.432 134.487 463.439 128.835 463.439 128.835C463.806 141.569 467.593 142.899 473.457 140.533C475.268 139.913 476.326 141.625 476.494 144.474C476.544 145.289 476.867 150.558 484.289 151.376C487.009 151.674 489.669 150.398 491.236 148.798C485.653 144.026 487.881 125.956 487.858 124.329ZM442.483 119.745C433.29 123.164 421.146 121.187 411.648 115.241C413.495 113.568 414.861 111.385 415.445 108.677C426.684 116.671 433.966 111.95 436.4 110.32C436.599 110.187 445.327 110.636 450.71 112.973C448.894 115.959 446.198 118.363 442.483 119.745ZM452.972 107.504C447.975 100.673 439.446 96.1765 439.446 96.1765C439.985 87.4224 426.848 77.0975 419.926 92.9075C425.153 89.3715 433.332 90.6412 432.935 96.2254C432.488 102.587 419.781 107.417 414.195 99.3708C403.781 84.3787 419.051 73.542 429.884 74.2717C446.534 75.3932 456.467 93.4486 452.972 107.504Z" fill="#1C6C42"/>
<path d="M339.558 41.3083C342.397 42.3857 345.179 42.682 348.098 41.5715C350.516 40.6533 352.437 38.2193 352.401 35.4743C352.362 32.4832 350.089 29.7994 347.484 28.7661C348.431 29.142 348.628 32.4746 348.35 33.3305C347.959 34.5364 347.018 35.189 345.837 35.38C342.601 35.8991 339.86 33.1382 338.985 30.0994C337.536 25.049 342.712 20.4895 347.254 20.5226C350.098 20.5434 353.706 22.5807 355.102 25.2571C359.744 34.1397 368.302 35.8232 369.983 35.5453C358.667 41.607 355.673 47.2047 354.923 53.411C349.587 46.4738 335.199 49.4098 340.754 63.8546C340.784 63.8914 340.807 63.9305 340.835 63.9697C341.547 63.5473 342.411 63.1849 343.486 62.918C347.527 62.2177 353.57 63.8706 353.333 70.3339C352.808 84.6269 362.71 92.2044 374.434 88.9256C379.73 87.4405 381.654 94.8257 380.18 98.0384C379.428 99.6778 378.477 100.775 377.378 101.46C377.454 101.511 377.527 101.555 377.603 101.607C386.84 104.188 393.377 101.43 392.157 91.9522C395.745 89.2464 398.891 86.1475 401.365 83.0218C404.487 79.072 407.406 74.5567 409.827 69.7499C412.293 65.0019 413.987 60.3701 415.022 55.9062C416.323 50.5778 416.783 45.2103 416.071 40.1097C415.651 36.0803 414.708 32.2934 413.367 28.804C415.799 28.0143 421.921 26.872 424.803 34.0406C426.247 37.6365 419.536 40.8234 419.536 40.8234C431.296 44.3973 433.683 41.0646 433.331 34.5352C433.323 32.553 435.217 32.0351 437.874 32.7489C438.636 32.9509 443.556 34.2585 446.596 27.1732C447.709 24.5751 447.364 21.551 446.385 19.5063C440.296 23.5528 424.457 15.766 422.961 15.286C416.437 13.1973 411.309 19.0546 409.628 21.3049C403.763 11.9338 394.975 5.88304 387.14 4.83745C388.975 7.82853 389.55 11.6167 388.395 15.2456C386.357 21.6502 379.712 25.1249 373.554 23.0055C367.395 20.8874 364.052 13.9796 366.089 7.57509C367.324 3.69391 370.254 0.898727 373.741 -0.237465C371.269 -0.0856476 369.044 0.219223 367.085 0.688148C363.926 1.44479 361.719 2.87727 359.933 4.48729C357.626 6.56255 354.16 12.006 354.555 16.0402C354.555 16.0402 348.326 9.59158 339.216 13.7323C328.017 18.8232 327.393 36.6901 339.558 41.3083ZM404.743 58.7405C405.032 68.8855 399.472 80.2854 391.097 87.8408C390.137 85.4974 388.562 83.4723 386.266 82.0582C397.052 73.4143 394.983 64.7545 394.246 61.8443C394.185 61.6055 397.291 53.1134 401.094 48.5111C403.263 51.2304 404.631 54.639 404.743 58.7405ZM396.791 44.5846C388.999 47.4166 382.249 54.4602 382.249 54.4602C374.41 51.2218 360.904 61.0239 373.227 72.7544C371.608 66.4931 375.297 58.7956 380.282 60.9138C385.964 63.322 386.454 77.38 377.369 80.4188C360.439 86.0839 355.244 67.6342 359.258 57.1477C365.428 41.0291 385.014 36.7843 396.791 44.5846Z" fill="#1C6C42"/>
<path d="M301.21 136.289C303.072 133.816 304.203 131.154 304.091 127.924C303.997 125.251 302.365 122.6 299.841 121.785C297.096 120.9 293.937 122.318 292.188 124.574C292.823 123.754 295.933 124.592 296.631 125.129C297.614 125.888 297.919 127.022 297.727 128.247C297.203 131.608 293.831 133.467 290.782 133.392C285.714 133.264 283.144 126.737 284.575 122.254C285.473 119.449 288.452 116.511 291.333 115.956C300.891 114.114 305.074 106.168 305.341 104.422C307.389 117.484 311.583 122.176 317.028 124.833C309.034 127.968 307.273 143.104 322.202 142.073C322.245 142.056 322.288 142.043 322.332 142.029C322.167 141.195 322.1 140.228 322.189 139.082C322.798 134.869 326.178 129.404 332.017 131.635C344.929 136.572 354.917 129.122 355.541 116.515C355.822 110.818 363.169 111.2 365.654 113.648C366.918 114.9 367.63 116.179 367.917 117.477C367.985 117.417 368.05 117.361 368.12 117.302C373.336 108.963 372.834 101.647 363.788 99.9234C362.421 95.5415 360.559 91.4705 358.464 88.0583C355.816 83.751 352.587 79.4695 348.938 75.5908C345.359 71.6839 341.644 68.5777 337.882 66.1743C333.41 63.2408 328.643 61.1288 323.757 60.2558C319.944 59.4257 316.188 59.1882 312.583 59.4355C312.612 56.7848 313.458 50.379 320.904 49.7448C324.641 49.4265 325.482 57.0505 325.482 57.0505C332.385 46.5248 330.074 43.1346 323.991 41.4658C322.177 40.8597 322.289 38.8261 323.763 36.419C324.183 35.7297 326.901 31.2694 321.358 26.0721C319.326 24.1682 316.452 23.5744 314.281 23.9111C316.1 31.1837 304.083 44.4422 303.182 45.773C299.256 51.5764 303.028 58.4573 304.568 60.8166C294.182 63.7195 285.935 70.5403 282.556 77.966C285.858 77.0759 289.501 77.6783 292.463 79.9409C297.692 83.9347 298.816 91.5795 294.975 97.0156C291.134 102.453 283.783 103.621 278.554 99.6284C275.386 97.2078 273.736 93.4466 273.773 89.6475C273.148 92.139 272.739 94.4335 272.563 96.5136C272.279 99.872 272.908 102.498 273.827 104.762C275.014 107.685 278.92 112.793 282.733 113.651C282.733 113.651 274.91 117.818 275.882 128.105C277.078 140.754 293.226 146.893 301.21 136.289ZM337.299 77.2143C346.668 80.0645 355.377 89.0855 359.699 99.7018C357.259 99.9271 354.921 100.859 352.918 102.692C348.342 89.3549 339.782 88.7256 336.893 88.5554C336.657 88.5407 329.849 82.845 326.814 77.6624C329.972 76.3572 333.51 76.0597 337.299 77.2143ZM321.893 80.7049C322.076 89.2863 326.432 98.1359 326.432 98.1359C321.048 104.888 325.839 121.271 340.378 112.711C334.149 112.376 328.251 106.351 331.727 102.075C335.685 97.2017 348.696 101.06 348.668 110.984C348.617 129.477 330.137 128.912 321.786 121.701C308.948 110.618 311.12 89.9401 321.893 80.7049Z" fill="#1C6C42"/>
<path d="M370.643 184.378C371.041 193.252 384.339 199.67 388.011 184.59C388.009 184.541 388.012 184.495 388.012 184.446C387.197 184.352 386.292 184.118 385.271 183.676C381.607 181.772 377.652 176.743 381.497 171.659C390.002 160.416 386.274 148.235 374.935 143.722C369.812 141.685 372.432 134.537 375.438 132.837C376.974 131.972 378.364 131.665 379.639 131.782C379.608 131.697 379.574 131.615 379.543 131.527C373.528 123.791 366.68 122.028 362.308 130.441C357.878 130.438 353.578 131.021 349.811 132.038C345.053 133.328 340.139 135.195 335.463 137.604C330.783 139.939 326.795 142.651 323.434 145.63C319.37 149.145 315.964 153.206 313.655 157.767C311.718 161.284 310.34 164.924 309.451 168.565C307.039 167.717 301.438 164.902 303.161 157.342C304.024 153.549 311.256 155.072 311.256 155.072C303.763 144.993 299.947 146.232 296.541 151.729C295.425 153.337 293.601 152.599 291.854 150.397C291.353 149.767 288.114 145.702 281.647 149.578C279.278 151 277.846 153.657 277.484 155.908C284.698 156.356 293.111 172.338 294.05 173.64C298.145 179.315 305.605 177.711 308.238 176.919C307.684 188.084 311.374 198.349 317.122 203.985C317.328 200.444 319.004 197.027 321.99 194.798C327.258 190.861 334.6 192.111 338.384 197.591C342.171 203.068 340.968 210.7 335.701 214.635C332.506 217.021 328.556 217.49 325.095 216.279C327.179 217.667 329.151 218.781 331.002 219.599C333.984 220.917 336.58 221.107 338.935 220.896C341.975 220.626 347.854 218.342 349.817 214.836C349.817 214.836 351.212 223.862 360.922 226.078C372.859 228.803 383.465 214.731 376.234 203.56C374.547 200.954 372.461 199.014 369.473 198.127C366.998 197.394 364.069 198.189 362.545 200.43C360.887 202.874 361.207 206.436 362.731 208.864C362.178 207.981 363.903 205.164 364.611 204.641C365.61 203.904 366.74 203.952 367.803 204.52C370.714 206.076 371.372 209.986 370.361 212.977C368.679 217.949 361.912 218.475 358.257 215.672C355.967 213.919 354.201 210.063 354.584 207.044C355.852 197.023 349.878 190.431 348.361 189.629C360.943 191.639 366.531 188.942 370.643 184.378ZM333.351 149.617C338.853 141.232 349.796 135.409 360.843 134.416C360.294 136.898 360.425 139.498 361.48 142.046C347.87 142.446 344.648 150.718 343.599 153.523C343.513 153.752 336.2 158.724 330.522 160.124C330.302 156.597 331.125 153.006 333.351 149.617ZM331.783 165.931C339.688 168.403 349.131 166.829 349.131 166.829C353.643 174.239 370.107 174.564 366.77 157.543C364.539 163.598 357.207 167.57 354.369 162.81C351.135 157.388 358.684 145.717 367.753 148.809C384.653 154.575 378.426 172.676 369.249 178.707C355.146 187.974 336.901 179.439 331.783 165.931Z" fill="#1C6C42"/>
<path d="M460.951 150.158C458.046 151.023 455.627 152.484 453.893 155.166C452.456 157.387 452.278 160.53 453.859 162.729C455.581 165.124 458.938 165.908 461.629 165.153C460.65 165.426 458.608 162.849 458.347 161.987C457.981 160.772 458.375 159.67 459.222 158.794C461.546 156.395 465.325 156.952 467.749 158.877C471.778 162.079 470.167 168.93 466.475 171.679C464.163 173.401 460.09 173.957 457.447 172.646C448.673 168.295 440.797 172.165 439.594 173.416C445.323 161.596 444.581 155.238 441.677 149.759C449.918 152.109 459.897 140.94 447.239 132.65C447.193 132.638 447.151 132.621 447.109 132.607C446.77 133.382 446.276 134.205 445.558 135.077C442.683 138.113 436.861 140.469 433.397 135.097C425.742 123.212 413.448 123.135 405.817 132.953C402.371 137.39 396.643 132.59 396.017 129.091C395.7 127.305 395.849 125.836 396.349 124.611C396.261 124.616 396.177 124.624 396.085 124.627C387.152 128.185 383.423 134.412 389.768 141.335C388.396 145.715 387.601 150.146 387.367 154.187C387.076 159.29 387.265 164.727 388.025 170.096C388.713 175.445 389.962 180.227 391.648 184.471C393.606 189.575 396.27 194.199 399.727 197.891C402.346 200.895 405.25 203.381 408.306 205.385C406.783 207.511 402.48 212.175 396.095 208.139C392.893 206.112 396.522 199.431 396.522 199.431C384.986 203.727 384.94 207.884 388.917 212.95C390.042 214.551 388.802 216.126 386.248 217.173C385.519 217.473 380.799 219.422 382.346 227.013C382.913 229.795 384.902 232.031 386.85 233.086C389.49 226.091 406.705 222.711 408.187 222.184C414.644 219.887 415.481 212.015 415.571 209.166C425.612 213.165 436.141 212.688 443.071 208.745C439.899 207.448 437.291 204.734 436.174 201.094C434.202 194.667 437.613 187.794 443.794 185.744C449.974 183.692 456.583 187.239 458.555 193.666C459.75 197.56 458.96 201.612 456.783 204.662C458.695 203.029 460.323 201.422 461.643 199.846C463.771 197.303 464.746 194.794 465.282 192.4C465.975 189.309 465.702 182.791 463.101 179.768C463.101 179.768 471.788 181.177 476.815 172.26C482.998 161.296 473.404 146.46 460.951 150.158ZM407.094 181.941C403.803 181.067 400.772 179.146 398.359 175.897C392.39 167.864 390.446 155.242 392.95 144.012C395.05 145.322 397.469 145.998 400.126 145.739C396.288 159.324 402.857 165.065 405.099 166.969C405.281 167.125 407.57 175.893 407.094 181.941ZM412.796 182.487C417.501 175.435 418.978 165.611 418.978 165.611C427.15 163.438 432.536 147.258 415.935 145.298C420.784 149.374 422.152 157.854 416.92 159.188C410.963 160.71 402.619 149.638 408.251 141.627C418.747 126.698 433.379 138.449 436.06 149.387C440.178 166.197 426.733 181.602 412.796 182.487Z" fill="#1C6C42"/>
<path d="M19.2137 271.88C16.1634 271.937 13.1119 272.056 10.0592 272.115C7.688 272.056 5.26069 271.937 2.94434 271.88V273.347C4.75232 273.347 7.12475 273.289 7.74408 275.347C8.25246 276.933 8.25246 281.28 8.25246 283.157V299.603C8.25246 301.483 8.25246 305.831 7.74408 307.415C7.12475 309.412 4.75232 309.412 2.94434 309.412V310.765C5.48502 310.704 8.02692 310.589 10.6249 310.525C13.9568 310.589 17.3484 310.704 20.6803 310.765C32.317 311.056 40.1694 304.593 40.1694 292.141C40.1694 279.397 31.132 271.647 19.2137 271.88ZM21.3033 309.179C19.1552 309.179 16.2756 308.941 14.976 306.943C13.8459 305.243 14.0726 302.421 14.0726 300.424V275.696C14.0726 275.227 14.0726 274.229 14.4091 273.877C14.9187 273.347 17.1241 273.465 17.8019 273.465C29.8897 273.465 33.1094 281.452 33.1094 293.083C33.1094 301.775 31.1881 309.179 21.3033 309.179Z" fill="#231F20"/>
<path d="M45.5798 283.275V284.448C49.8724 284.448 49.9858 285.74 49.9858 290.028V304.004C49.9858 308.293 49.8724 309.587 45.5798 309.587V310.763C47.895 310.7 50.2113 310.643 52.5277 310.643C54.8428 310.643 57.1592 310.7 59.4768 310.763V309.587C55.1818 309.587 55.0684 308.293 55.0684 304.004V290.028C55.0684 285.74 55.1818 284.448 59.4768 284.448V283.275C57.1592 283.331 54.8428 283.389 52.5277 283.389C50.2113 283.389 47.895 283.331 45.5798 283.275Z" fill="#231F20"/>
<path d="M104.885 283.275C103.248 283.331 101.609 283.39 99.9717 283.39C98.6721 283.39 96.6386 283.331 95.2817 283.275V284.449C97.147 284.683 99.2366 284.917 99.2366 287.268C99.2366 287.971 99.0086 289.555 97.9943 292.378L93.6444 304.767H93.5323L86.4137 283.39H85.058L77.8286 304.767H77.7152L73.0252 290.206C72.6314 288.853 72.123 287.855 72.123 286.384C72.123 284.449 74.5515 284.449 75.9633 284.449V283.275C73.7603 283.331 71.5012 283.39 69.297 283.39C67.1526 283.39 65.063 283.331 62.9722 283.275V284.449C66.8697 285.096 66.8697 287.149 68.6204 292.258L75.2306 311.408H76.924L83.9279 291.142H84.0413L90.9343 311.408H92.6264L100.931 288.089C101.724 285.916 102.287 284.564 104.885 284.449V283.275Z" fill="#231F20"/>
<path d="M128.371 304.655L119.672 282.626H118.032L110.803 299.779C108.6 304.947 107.867 309.59 103.688 309.59V310.764C105.325 310.701 106.961 310.644 108.6 310.644C110.237 310.644 111.877 310.701 113.514 310.764V309.59C112.045 309.59 109.842 309.59 109.842 307.593C109.842 306.298 110.577 304.478 111.142 302.95L111.877 300.895H121.931L123.909 306.24C124.134 306.885 124.361 307.529 124.361 308.237C124.361 309.59 122.665 309.59 120.633 309.59V310.764C122.722 310.701 124.812 310.644 126.904 310.644C129.048 310.644 131.139 310.701 133.286 310.764V309.59C129.954 309.59 129.726 308.06 128.371 304.655ZM112.725 299.31L117.13 288.558L121.253 299.31H112.725Z" fill="#231F20"/>
<path d="M156.549 283.275V284.449C160.277 284.449 161.236 285.096 161.236 289.851V304.243H161.124L144.518 283.275C142.935 283.331 141.352 283.39 139.943 283.39C138.53 283.39 137.342 283.331 136.439 283.275V284.449C138.134 284.508 139.943 285.037 141.014 286.446V304.182C141.014 308.939 140.055 309.588 136.327 309.588V310.763C138.134 310.702 139.884 310.644 141.692 310.644C143.84 310.644 145.59 310.702 147.397 310.763V309.588C143.67 309.588 142.709 308.939 142.709 304.182V288.677H142.822L161.236 311.408H162.931V289.851C162.931 285.096 163.892 284.449 167.677 284.449V283.275C165.814 283.331 164.062 283.39 161.917 283.39C160.109 283.39 158.357 283.331 156.549 283.275Z" fill="#231F20"/>
<path d="M201.218 282.625C192.065 282.625 186.474 288.443 186.474 297.017C186.474 305.591 192.065 311.408 201.218 311.408C210.311 311.408 215.905 305.591 215.905 297.017C215.905 288.443 210.311 282.625 201.218 282.625ZM201.161 310.234C194.553 310.234 192.293 303.714 192.293 297.017C192.293 290.321 194.553 283.802 201.161 283.802C207.826 283.802 210.087 290.321 210.087 297.017C210.087 303.714 207.826 310.234 201.161 310.234Z" fill="#231F20"/>
<path d="M226.625 283.389C224.31 283.389 221.992 283.332 219.677 283.275V284.449C223.97 284.449 224.083 285.74 224.083 290.028V304.004C224.083 308.293 223.97 309.589 219.677 309.589V310.763C221.992 310.7 224.31 310.643 226.625 310.643C228.94 310.643 231.258 310.7 233.574 310.763V309.589C229.28 309.589 229.168 308.293 229.168 304.004V297.546C234.138 297.546 235.551 298.249 235.777 302.595H236.906C236.851 300.542 236.794 298.545 236.794 296.486C236.794 294.61 236.851 292.669 236.906 290.792H235.777C235.494 295.784 233.856 296.372 229.168 296.372V285.209C229.168 284.622 229.451 284.449 230.184 284.449H235.044C239.787 284.449 241.198 286.384 242.104 290.262H243.065L242.498 283.275C237.302 283.332 231.258 283.389 226.625 283.389Z" fill="#231F20"/>
<path d="M259.657 283.275V290.381H260.788C261.016 286.68 262.199 284.74 266.492 284.74H269.713C270.731 284.74 271.35 284.859 271.35 285.563V304.004C271.35 308.293 271.237 309.587 266.945 309.587V310.763C269.259 310.7 271.578 310.643 273.892 310.643C276.207 310.643 278.526 310.7 280.841 310.763V309.587C276.547 309.587 276.435 308.293 276.435 304.004V285.563C276.435 284.859 277.056 284.74 278.073 284.74H281.292C285.586 284.74 286.771 286.68 286.999 290.381H288.129V283.275C283.043 283.331 278.469 283.389 273.892 283.389C269.318 283.389 264.742 283.331 259.657 283.275Z" fill="#231F20"/>
<path d="M311.336 283.275V284.448C315.628 284.448 315.742 285.74 315.742 290.028V295.726H301.11V290.028C301.11 285.74 301.223 284.448 305.516 284.448V283.275C303.2 283.331 300.884 283.389 298.567 283.389C296.253 283.389 293.937 283.331 291.621 283.275V284.448C295.915 284.448 296.027 285.74 296.027 290.028V304.004C296.027 308.293 295.915 309.587 291.621 309.587V310.763C293.937 310.7 296.253 310.643 298.567 310.643C300.884 310.643 303.2 310.7 305.516 310.763V309.587C301.223 309.587 301.11 308.293 301.11 304.004V297.313H315.742V304.004C315.742 308.293 315.628 309.587 311.336 309.587V310.763C313.651 310.7 315.967 310.643 318.285 310.643C320.599 310.643 322.914 310.7 325.233 310.763V309.587C320.939 309.587 320.824 308.293 320.824 304.004V290.028C320.824 285.74 320.939 284.448 325.233 284.448V283.275C322.914 283.331 320.599 283.389 318.285 283.389C315.967 283.389 313.651 283.331 311.336 283.275Z" fill="#231F20"/>
<path d="M343.975 309.589C340.132 309.589 338.382 308.591 338.382 305.534V296.903C343.411 296.903 344.765 297.605 344.989 301.951H346.12C346.065 299.898 346.008 297.901 346.008 295.843C346.008 293.788 346.065 291.73 346.12 289.733H344.989C344.708 294.901 343.353 295.728 338.382 295.728V285.209C338.382 284.622 338.665 284.45 339.4 284.45H344.257C348.775 284.45 350.13 285.507 350.753 290.263H351.714V283.276C346.515 283.332 340.472 283.391 335.84 283.391C333.524 283.391 331.209 283.332 328.891 283.276V284.45C333.184 284.45 333.299 285.74 333.299 290.03V304.004C333.299 308.294 333.184 309.589 328.891 309.589V310.763C331.209 310.701 333.524 310.645 335.84 310.645C341.715 310.645 347.645 310.701 353.408 310.763L353.746 303.246H352.618C351.771 308.94 349.285 309.589 343.975 309.589Z" fill="#231F20"/>
<path d="M372.035 271.891V273.243C373.843 273.243 376.157 273.243 376.892 275.238C377.457 276.826 377.457 281.173 377.457 283.05V299.614C377.457 301.496 377.457 305.842 376.892 307.427C376.157 309.423 373.843 309.423 372.035 309.423V310.776C374.857 310.715 377.739 310.6 380.561 310.538C383.275 310.6 386.043 310.715 388.698 310.776V309.423C386.891 309.423 384.573 309.423 383.84 307.427C383.275 305.842 383.275 301.496 383.275 299.614V283.05C383.275 281.173 383.275 276.826 383.84 275.238C384.573 273.243 386.891 273.243 388.698 273.243V271.891C385.873 271.95 383.048 272.067 380.166 272.125C377.457 272.067 374.745 271.95 372.035 271.891Z" fill="#231F20"/>
<path d="M397.9 288.034C397.9 285.507 399.762 283.801 402.417 283.801C406.994 283.801 408.293 287.212 409.988 290.971H410.891L410.383 283.156H409.931L409.083 285.095C407.222 283.686 404.621 282.626 402.251 282.626C396.825 282.626 393.608 285.976 393.608 290.087C393.608 299.955 408.293 297.604 408.293 305.009C408.293 308.237 406.204 310.234 402.362 310.234C397.842 310.234 395.074 306.418 394.511 301.952H393.437V310.645H393.944L395.3 308.883C397.053 310.291 399.99 311.41 402.193 311.41C407.39 311.41 412.586 309.059 412.586 302.95C412.586 293.378 397.9 294.553 397.9 288.034Z" fill="#231F20"/>
<path d="M445.228 283.277L436.02 303.892L426.757 283.277C425.116 283.333 423.536 283.392 421.896 283.392C420.429 283.392 418.905 283.333 417.267 283.277V284.452C419.809 284.452 421.842 285.33 421.842 288.736V304.184C421.842 308.94 420.882 309.589 417.154 309.589V310.766C418.962 310.702 420.711 310.646 422.519 310.646C424.666 310.646 426.417 310.702 428.225 310.766V309.589C424.497 309.589 423.536 308.94 423.536 304.184V287.327H423.65L433.873 310.412H434.495L444.945 287.799H445.059V304.006C445.059 308.296 444.945 309.589 440.653 309.589V310.766C442.968 310.702 445.283 310.646 447.601 310.646C449.916 310.646 452.231 310.702 454.549 310.766V309.589C450.256 309.589 450.141 308.296 450.141 304.006V288.736C450.141 285.33 452.175 284.452 454.774 284.452V283.277C453.078 283.333 451.553 283.392 450.085 283.392C448.449 283.392 446.866 283.333 445.228 283.277Z" fill="#231F20"/>
<path d="M481.367 304.655L472.669 282.626H471.029L463.799 299.779C461.596 304.947 460.861 309.59 456.685 309.59V310.764C458.322 310.701 459.958 310.644 461.596 310.644C463.234 310.644 464.874 310.701 466.512 310.764V309.59C465.042 309.59 462.839 309.59 462.839 307.593C462.839 306.298 463.574 304.478 464.14 302.95L464.874 300.895H474.928L476.905 306.24C477.133 306.885 477.357 307.529 477.357 308.237C477.357 309.59 475.663 309.59 473.629 309.59V310.764C475.719 310.701 477.809 310.644 479.901 310.644C482.045 310.644 484.136 310.701 486.283 310.764V309.59C482.951 309.59 482.723 308.06 481.367 304.655ZM465.722 299.31L470.127 288.558L474.25 299.31H465.722Z" fill="#231F20"/>
<path d="M490.172 283.275V284.448C494.464 284.448 494.578 285.74 494.578 290.028V304.004C494.578 308.293 494.464 309.587 490.172 309.587V310.763C492.487 310.7 494.802 310.643 497.121 310.643C499.435 310.643 501.75 310.7 504.068 310.763V309.587C499.773 309.587 499.66 308.293 499.66 304.004V290.028C499.66 285.74 499.773 284.448 504.068 284.448V283.275C501.75 283.331 499.435 283.389 497.121 283.389C494.802 283.389 492.487 283.331 490.172 283.275Z" fill="#231F20"/>
<path d="M524.68 309.589C518.692 309.589 518.015 308.294 518.015 303.537V290.03C518.015 285.74 518.127 284.45 522.419 284.45V283.276C520.102 283.332 517.787 283.389 515.472 283.389C513.154 283.389 510.839 283.332 508.525 283.276V284.45C512.816 284.45 512.928 285.74 512.928 290.03V304.004C512.928 308.294 512.816 309.589 508.525 309.589V310.763C511.574 310.701 516.149 310.645 521.796 310.645C527.108 310.645 530.499 310.701 533.549 310.763L533.832 302.658H532.756C531.965 306.241 531.346 309.589 524.68 309.589Z" fill="#231F20"/>
<path d="M537.21 283.275V284.448C541.503 284.448 541.616 285.74 541.616 290.028V304.004C541.616 308.293 541.503 309.587 537.21 309.587V310.763C539.525 310.7 541.841 310.643 544.158 310.643C546.473 310.643 548.788 310.7 551.107 310.763V309.587C546.811 309.587 546.698 308.293 546.698 304.004V290.028C546.698 285.74 546.811 284.448 551.107 284.448V283.275C548.788 283.331 546.473 283.389 544.158 283.389C541.841 283.389 539.525 283.331 537.21 283.275Z" fill="#231F20"/>
<path d="M570.132 271.891V273.243C571.94 273.243 574.253 273.243 574.99 275.238C575.554 276.826 575.554 281.173 575.554 283.05V299.614C575.554 301.496 575.554 305.842 574.99 307.427C574.253 309.423 571.94 309.423 570.132 309.423V310.776C572.954 310.715 575.837 310.6 578.658 310.538C581.372 310.6 584.139 310.715 586.796 310.776V309.423C584.987 309.423 582.67 309.423 581.936 307.427C581.372 305.842 581.372 301.496 581.372 299.614V283.05C581.372 281.173 581.372 276.826 581.936 275.238C582.67 273.243 584.987 273.243 586.796 273.243V271.891C583.97 271.95 581.145 272.067 578.264 272.125C575.554 272.067 572.842 271.95 570.132 271.891Z" fill="#231F20"/>
<path d="M618.251 283.277L609.045 303.892L599.78 283.277C598.142 283.333 596.561 283.392 594.924 283.392C593.454 283.392 591.928 283.333 590.292 283.277V284.452C592.834 284.452 594.867 285.33 594.867 288.736V304.184C594.867 308.94 593.907 309.589 590.179 309.589V310.766C591.987 310.702 593.735 310.646 595.544 310.646C597.691 310.646 599.44 310.702 601.25 310.766V309.589C597.522 309.589 596.561 308.94 596.561 304.184V287.327H596.675L606.899 310.412H607.52L617.97 287.799H618.081V304.006C618.081 308.296 617.97 309.589 613.675 309.589V310.766C615.991 310.702 618.311 310.646 620.626 310.646C622.941 310.646 625.256 310.702 627.571 310.766V309.589C623.28 309.589 623.166 308.296 623.166 304.006V288.736C623.166 285.33 625.201 284.452 627.8 284.452V283.277C626.107 283.333 624.582 283.392 623.111 283.392C621.472 283.392 619.891 283.333 618.251 283.277Z" fill="#231F20"/>
<path d="M654.393 304.655L645.695 282.626H644.052L636.823 299.779C634.622 304.947 633.887 309.59 629.707 309.59V310.764C631.343 310.701 632.983 310.644 634.622 310.644C636.257 310.644 637.898 310.701 639.533 310.764V309.59C638.068 309.59 635.862 309.59 635.862 307.593C635.862 306.298 636.597 304.478 637.163 302.95L637.898 300.895H647.954L649.929 306.24C650.154 306.885 650.38 307.529 650.38 308.237C650.38 309.59 648.689 309.59 646.653 309.59V310.764C648.742 310.701 650.833 310.644 652.924 310.644C655.068 310.644 657.158 310.701 659.304 310.764V309.59C655.974 309.59 655.749 308.06 654.393 304.655ZM638.743 299.31L643.148 288.558L647.273 299.31H638.743Z" fill="#231F20"/>
<path d="M690.424 283.277L681.214 303.892L671.952 283.277C670.312 283.333 668.732 283.392 667.092 283.392C665.626 283.392 664.101 283.333 662.462 283.277V284.452C665.002 284.452 667.037 285.33 667.037 288.736V304.184C667.037 308.94 666.077 309.589 662.347 309.589V310.766C664.157 310.702 665.907 310.646 667.717 310.646C669.862 310.646 671.612 310.702 673.418 310.766V309.589C669.692 309.589 668.732 308.94 668.732 304.184V287.327H668.842L679.069 310.412H679.688L690.138 287.799H690.253V304.006C690.253 308.296 690.138 309.589 685.847 309.589V310.766C688.162 310.702 690.478 310.646 692.794 310.646C695.109 310.646 697.428 310.702 699.744 310.766V309.589C695.449 309.589 695.339 308.296 695.339 304.006V288.736C695.339 285.33 697.369 284.452 699.969 284.452V283.277C698.274 283.333 696.75 283.392 695.278 283.392C693.645 283.392 692.058 283.333 690.424 283.277Z" fill="#231F20"/>
<path d="M726.561 304.655L717.861 282.626H716.22L708.991 299.779C706.79 304.947 706.055 309.59 701.876 309.59V310.764C703.511 310.701 705.149 310.644 706.79 310.644C708.425 310.644 710.065 310.701 711.701 310.764V309.59C710.236 309.59 708.03 309.59 708.03 307.593C708.03 306.298 708.765 304.478 709.331 302.95L710.065 300.895H720.122L722.097 306.24C722.322 306.885 722.546 307.529 722.546 308.237C722.546 309.59 720.855 309.59 718.821 309.59V310.764C720.91 310.701 723.001 310.644 725.092 310.644C727.236 310.644 729.326 310.701 731.472 310.764V309.59C728.142 309.59 727.917 308.06 726.561 304.655ZM710.911 299.31L715.316 288.558L719.441 299.31H710.911Z" fill="#231F20"/>
<path d="M746.553 283.389C741.974 283.389 737.399 283.332 732.317 283.275V290.382H733.449C733.673 286.68 734.858 284.74 739.153 284.74H742.374C743.39 284.74 744.009 284.859 744.009 285.563V304.004C744.009 308.293 743.898 309.589 739.603 309.589V310.763C741.919 310.7 744.234 310.643 746.553 310.643C748.868 310.643 751.184 310.7 753.5 310.763V309.589C749.205 309.589 749.094 308.293 749.094 304.004V285.563C749.094 284.859 749.714 284.74 750.73 284.74H753.95C758.245 284.74 759.43 286.68 759.655 290.382H760.785V283.275C755.705 283.332 751.13 283.389 746.553 283.389Z" fill="#231F20"/>
</g>
<defs>
<clipPath id="clip0_106_4489">
<rect width="761" height="329" fill="white"/>
</clipPath>
</defs>
</svg>
