<svg width="553" height="89" viewBox="0 0 553 89" fill="none" xmlns="http://www.w3.org/2000/svg">
<g clip-path="url(#clip0_143_5289)">
<path d="M82.3394 47.4577C82.2993 44.7503 79.6472 43.5062 78.662 43.1366C81.2448 39.8186 82.3212 35.7891 81.7613 32.7098C80.9332 33.754 79.6774 34.4174 78.2731 34.4099C75.7942 34.3964 73.7951 32.2987 73.8086 29.7245C73.8221 27.1502 75.8413 25.075 78.3202 25.0885C79.8218 25.0969 81.1442 25.8729 81.9537 27.0545C81.6086 26.1402 81.2392 25.3361 80.8442 24.6526C80.2066 23.5491 79.4455 22.8857 78.6718 22.4012C77.6736 21.7757 75.3634 21.1095 74 21.7346C74 21.7346 75.518 18.6231 72.9958 15.6742C69.8941 12.0487 63.5767 13.9194 63.3993 19.0552C63.3574 20.2526 63.5828 21.3379 64.3155 22.3087C64.9219 23.1118 65.9993 23.5501 66.9541 23.2132C67.9942 22.846 68.6645 21.671 68.7185 20.5666C68.6989 20.9684 67.5569 21.4356 67.2247 21.4314C66.7576 21.4262 66.4185 21.1478 66.2126 20.725C65.6485 19.5654 66.2895 18.2049 67.2485 17.5168C68.8424 16.3745 71.0465 17.7905 71.5714 19.5075C71.9007 20.5834 71.6138 22.1854 70.8434 23.0282C68.2872 25.8262 68.7101 29.2545 69.0054 29.8558C65.5507 26.3004 63.2414 25.8304 60.9837 26.2803C62.7779 23.4478 60.0536 18.3652 55.6612 22.1648C55.6519 22.1798 55.6407 22.1938 55.631 22.2088C55.862 22.4274 56.0907 22.711 56.3115 23.0847C57.033 24.5274 57.169 27.0031 54.8824 27.6754C49.8254 29.1629 48.3466 33.7923 50.8763 37.8302C52.0202 39.6537 49.6671 41.2492 48.3699 41.073C47.7089 40.9819 47.2129 40.7525 46.844 40.419C46.8351 40.4526 46.8277 40.4858 46.8184 40.5203C47.0075 44.3111 48.7434 46.4518 51.9112 44.8746C53.2802 45.9089 54.7348 46.7312 56.1186 47.296C57.8681 48.008 59.7904 48.5771 61.756 48.9237C63.7067 49.2942 65.5256 49.3876 67.2075 49.2521C69.223 49.1148 71.1532 48.6555 72.8514 47.7852C74.2096 47.1512 75.4216 46.3495 76.4826 45.4319C77.0458 46.2565 78.1683 48.4318 76.0033 50.3645C74.9176 51.334 73.0102 49.1769 73.0102 49.1769C73.1504 54.0362 74.5972 54.5436 76.8376 53.6409C77.5293 53.4041 77.9335 54.0577 77.9978 55.1448C78.0169 55.4555 78.1404 57.4663 80.976 57.7784C82.0152 57.8919 83.0315 57.4051 83.6301 56.7945C81.4972 54.9738 82.3482 48.0786 82.3394 47.4577ZM65.0034 45.7085C61.4914 47.0129 56.8518 46.2588 53.2229 43.9897C53.9285 43.3515 54.4502 42.5185 54.6733 41.4851C58.9674 44.5354 61.7495 42.7339 62.6796 42.1121C62.7556 42.0611 66.0901 42.2326 68.147 43.1245C67.453 44.2639 66.4231 45.181 65.0034 45.7085ZM69.011 41.0375C67.1018 38.4311 63.8432 36.7151 63.8432 36.7151C64.049 33.3746 59.0302 29.4348 56.3855 35.4677C58.3823 34.1184 61.5073 34.6029 61.3559 36.7337C61.1849 39.1613 56.3301 41.0043 54.1959 37.934C50.2172 32.2132 56.0511 28.0781 60.19 28.3565C66.5512 28.7845 70.3464 35.6742 69.011 41.0375Z" fill="#1C6C42"/>
<path d="M25.6807 15.782C26.765 16.1931 27.8279 16.3062 28.9435 15.8824C29.8671 15.532 30.6012 14.6033 30.5872 13.5558C30.5723 12.4145 29.7041 11.3904 28.7087 10.9961C29.0706 11.1395 29.1456 12.4112 29.0394 12.7378C28.8904 13.198 28.5308 13.447 28.0794 13.5199C26.8433 13.7179 25.7957 12.6644 25.4617 11.5049C24.9079 9.57769 26.8856 7.83787 28.6207 7.85048C29.7073 7.85842 31.0861 8.63583 31.6194 9.65711C33.3926 13.0466 36.6624 13.689 37.3047 13.5829C32.9813 15.896 31.8374 18.032 31.5509 20.4002C29.5122 17.7531 24.015 18.8734 26.1376 24.3853C26.1488 24.3993 26.1576 24.4143 26.1683 24.4292C26.4404 24.2681 26.7706 24.1298 27.1814 24.0279C28.725 23.7607 31.0339 24.3914 30.9435 26.8577C30.7428 32.3117 34.5259 35.2032 39.0053 33.952C41.0287 33.3853 41.7637 36.2034 41.2005 37.4293C40.9131 38.0549 40.5498 38.4735 40.1302 38.7351C40.159 38.7543 40.187 38.7711 40.2159 38.7912C43.7451 39.776 46.2426 38.7234 45.7764 35.1069C47.1472 34.0744 48.3494 32.892 49.2944 31.6992C50.4873 30.1921 51.6024 28.4691 52.5274 26.6349C53.4697 24.8231 54.1167 23.0557 54.5121 21.3523C55.0091 19.3191 55.1852 17.2709 54.9132 15.3246C54.7525 13.7871 54.3924 12.3421 53.8801 11.0106C54.8093 10.7092 57.148 10.2733 58.2491 13.0087C58.801 14.3809 56.2369 15.597 56.2369 15.597C60.7298 16.9607 61.6418 15.689 61.5072 13.1975C61.5044 12.4411 62.2278 12.2435 63.2432 12.5159C63.5343 12.5929 65.4137 13.0919 66.5754 10.3883C67.0007 9.39688 66.8689 8.24292 66.4948 7.46271C64.1682 9.00678 58.1168 6.03544 57.5453 5.8523C55.0529 5.05527 53.0938 7.29032 52.4515 8.14902C50.2106 4.57313 46.8533 2.26427 43.8597 1.86529C44.5607 3.00664 44.7805 4.45213 44.339 5.83688C43.5606 8.28076 41.0217 9.60666 38.669 8.79795C36.3159 7.9897 35.0387 5.35381 35.817 2.90993C36.2889 1.42893 37.4081 0.362331 38.7403 -0.0712204C37.7961 -0.0132904 36.9461 0.103043 36.1976 0.281979C34.9907 0.570702 34.1472 1.11731 33.4648 1.73167C32.5836 2.52356 31.2593 4.6007 31.4102 6.14009C31.4102 6.14009 29.0306 3.67939 25.5498 5.25943C21.2711 7.20202 21.0326 14.0197 25.6807 15.782ZM50.5851 22.4339C50.6955 26.305 48.5711 30.655 45.3716 33.5381C45.0046 32.6439 44.4028 31.8711 43.5257 31.3315C47.6465 28.0332 46.8561 24.7287 46.5747 23.6182C46.5514 23.5271 47.7378 20.2867 49.191 18.5305C50.0196 19.5681 50.5423 20.8688 50.5851 22.4339ZM47.5468 17.0322C44.57 18.1128 41.991 20.8006 41.991 20.8006C38.996 19.5648 33.836 23.3052 38.5442 27.7813C37.9256 25.3921 39.3351 22.4549 41.2397 23.2631C43.4102 24.1821 43.5974 29.5464 40.1264 30.706C33.6581 32.8677 31.6734 25.8275 33.2072 21.8261C35.5646 15.6755 43.0474 14.0557 47.5468 17.0322Z" fill="#1C6C42"/>
<path d="M11.0289 52.0248C11.7401 51.0811 12.1724 50.0654 12.1295 48.8329C12.0936 47.8131 11.47 46.8011 10.5058 46.4904C9.45685 46.1527 8.25001 46.6937 7.58161 47.5547C7.82428 47.2417 9.01249 47.5612 9.27939 47.7663C9.65481 48.056 9.77125 48.4886 9.69812 48.9563C9.49784 50.2387 8.20948 50.9479 7.04456 50.9194C5.10831 50.8704 4.12644 48.3798 4.67326 46.6694C5.01608 45.599 6.15445 44.4778 7.2551 44.2661C10.9068 43.563 12.5049 40.5309 12.6069 39.8647C13.3894 44.8492 14.9917 46.6395 17.0719 47.6533C14.0178 48.8498 13.3452 54.6252 19.0487 54.2318C19.0655 54.2253 19.0818 54.2206 19.0985 54.215C19.0357 53.8968 19.01 53.5277 19.044 53.0904C19.2765 51.4828 20.5681 49.3978 22.7987 50.249C27.7318 52.1327 31.548 49.2898 31.7864 44.4792C31.8936 42.3053 34.7009 42.4511 35.6501 43.3855C36.1331 43.8629 36.4051 44.3512 36.5146 44.8464C36.5407 44.8235 36.5654 44.802 36.5924 44.7796C38.585 41.5975 38.3931 38.8061 34.937 38.1483C34.4149 36.4762 33.7036 34.9228 32.9029 33.6207C31.8913 31.9771 30.6579 30.3434 29.2638 28.8633C27.8962 27.3725 26.477 26.1872 25.0396 25.2701C23.3311 24.1507 21.5099 23.3448 19.643 23.0117C18.1861 22.695 16.751 22.6043 15.3737 22.6987C15.3849 21.6872 15.7081 19.2429 18.5531 19.0009C19.9807 18.8794 20.3021 21.7886 20.3021 21.7886C22.9394 17.7722 22.0563 16.4785 19.7325 15.8417C19.0394 15.6105 19.0822 14.8345 19.6454 13.916C19.8056 13.6529 20.8443 11.951 18.7264 9.96773C17.9499 9.24125 16.8521 9.01466 16.0225 9.14314C16.7175 11.9183 12.1262 16.9775 11.782 17.4853C10.2822 19.6998 11.7233 22.3254 12.3116 23.2257C8.34363 24.3334 5.19261 26.9361 3.90193 29.7696C5.16327 29.43 6.55503 29.6599 7.68688 30.5232C9.68462 32.0472 10.1141 34.9643 8.64639 37.0387C7.17917 39.1135 4.37051 39.5592 2.37277 38.0357C1.1622 37.112 0.531995 35.6768 0.545969 34.2271C0.307488 35.1779 0.150986 36.0534 0.0839134 36.8471C-0.0246138 38.1286 0.215729 39.1308 0.566929 39.9946C1.02014 41.1098 2.5125 43.0589 3.96947 43.3864C3.96947 43.3864 0.980544 44.9767 1.35177 48.9021C1.80871 53.7286 7.97846 56.0711 11.0289 52.0248ZM24.817 29.4828C28.3965 30.5704 31.7236 34.0127 33.3748 38.0637C32.4427 38.1497 31.5494 38.5052 30.7841 39.2046C29.036 34.1155 25.7653 33.8753 24.6618 33.8104C24.5715 33.8048 21.9706 31.6314 20.8108 29.6538C22.0176 29.1558 23.3693 29.0422 24.817 29.4828ZM18.9309 30.8148C19.0007 34.0893 20.665 37.4662 20.665 37.4662C18.6081 40.0427 20.4386 46.2942 25.993 43.0276C23.6134 42.9001 21.3599 40.601 22.6879 38.9691C24.2003 37.1097 29.1711 38.5818 29.1604 42.3689C29.1408 49.4253 22.0805 49.21 18.8899 46.4582C13.9852 42.2292 14.8147 34.3388 18.9309 30.8148Z" fill="#1C6C42"/>
<path d="M37.5571 70.3755C37.709 73.7617 42.7897 76.2107 44.1927 70.4563C44.1917 70.4376 44.1931 70.4204 44.1931 70.4017C43.8815 70.3657 43.5359 70.2765 43.1456 70.1078C41.7459 69.3813 40.2349 67.4621 41.704 65.5223C44.9533 61.2321 43.5289 56.584 39.1967 54.8619C37.2395 54.0845 38.2404 51.3571 39.3891 50.7081C39.9759 50.3783 40.5069 50.261 40.9941 50.3059C40.982 50.2732 40.969 50.2419 40.9573 50.2082C38.6592 47.2565 36.0429 46.5838 34.3726 49.7938C32.6799 49.7929 31.0371 50.0153 29.5978 50.4035C27.7799 50.8955 25.9028 51.6079 24.1161 52.5274C22.3279 53.4183 20.8043 54.4531 19.5202 55.5898C17.9677 56.9311 16.6663 58.4808 15.7841 60.2211C15.044 61.5633 14.5177 62.9523 14.1781 64.3417C13.2563 64.018 11.1165 62.9439 11.7747 60.059C12.1045 58.6116 14.8675 59.1928 14.8675 59.1928C12.0048 55.3469 10.5469 55.8197 9.24549 57.9174C8.8193 58.5308 8.12249 58.2491 7.45502 57.4091C7.26358 57.1685 6.026 55.6174 3.55503 57.0965C2.65001 57.6389 2.10318 58.6527 1.96484 59.5119C4.72088 59.6829 7.93524 65.7811 8.29389 66.2782C9.85846 68.4437 12.7086 67.8316 13.7147 67.5294C13.5027 71.7897 14.9127 75.7066 17.1088 77.8571C17.1875 76.506 17.828 75.2021 18.9687 74.3518C20.9813 72.8493 23.7863 73.3263 25.2321 75.4174C26.6788 77.5072 26.2195 80.4197 24.2069 81.9212C22.9865 82.8318 21.4774 83.0107 20.155 82.5486C20.9511 83.078 21.7047 83.5031 22.4118 83.8152C23.5511 84.3184 24.5427 84.3908 25.4426 84.3104C26.6043 84.2072 28.8503 83.3359 29.6002 81.9978C29.6002 81.9978 30.133 85.442 33.843 86.2876C38.4035 87.3275 42.4558 81.9576 39.6932 77.695C39.0486 76.7008 38.2516 75.9603 37.11 75.6221C36.1644 75.3422 35.0452 75.6454 34.4629 76.5008C33.8295 77.4334 33.952 78.7924 34.5342 79.7189C34.3227 79.382 34.9818 78.307 35.2524 78.1075C35.6339 77.8263 36.0657 77.8445 36.4719 78.0613C37.5841 78.6551 37.8357 80.1473 37.4491 81.2886C36.8068 83.1859 34.2212 83.3863 32.8248 82.3169C31.95 81.6479 31.2751 80.1767 31.4214 79.0246C31.9058 75.2007 29.6235 72.6853 29.044 72.3793C33.8509 73.1464 35.986 72.1172 37.5571 70.3755ZM23.3093 57.1115C25.4114 53.9117 29.5923 51.6897 33.8127 51.3108C33.6031 52.2578 33.6529 53.2501 34.0563 54.2223C28.8563 54.3751 27.6253 57.5315 27.2247 58.6018C27.1916 58.6892 24.3979 60.5864 22.2282 61.1204C22.1444 59.7749 22.4588 58.4046 23.3093 57.1115ZM22.7103 63.3363C25.7305 64.2796 29.3379 63.6792 29.3379 63.6792C31.0618 66.5067 37.3522 66.6305 36.0773 60.1356C35.225 62.4463 32.4237 63.9619 31.3394 62.1455C30.1037 60.0767 32.9878 55.623 36.4528 56.8031C42.9094 59.0031 40.5307 65.9101 37.0243 68.2115C31.6361 71.7476 24.6657 68.4908 22.7103 63.3363Z" fill="#1C6C42"/>
<path d="M72.0592 57.3166C70.9492 57.6465 70.0251 58.2038 69.3628 59.2274C68.8136 60.0749 68.7456 61.2742 69.3497 62.1133C70.0074 63.0271 71.2902 63.3266 72.3181 63.0383C71.9441 63.1425 71.1639 62.1591 71.0643 61.8302C70.9245 61.3667 71.075 60.9462 71.3987 60.6117C72.2865 59.6965 73.7304 59.9091 74.6564 60.6435C76.1958 61.8652 75.5805 64.4796 74.1696 65.5285C73.2865 66.1858 71.7303 66.3979 70.7205 65.8975C67.3683 64.2371 64.3593 65.7139 63.8996 66.1914C66.0883 61.6811 65.8051 59.255 64.6956 57.1643C67.8438 58.0609 71.6567 53.7991 66.8205 50.6358C66.8028 50.6311 66.787 50.6246 66.7707 50.6194C66.6412 50.9152 66.4525 51.2291 66.1782 51.5618C65.0799 52.7204 62.8553 53.6193 61.532 51.5692C58.6074 47.0342 53.9104 47.0048 50.9946 50.7512C49.6783 52.4443 47.4896 50.6129 47.2507 49.2777C47.1296 48.596 47.1864 48.0354 47.3774 47.5682C47.3438 47.5701 47.3117 47.5729 47.2768 47.5743C43.8635 48.9319 42.4391 51.3081 44.8631 53.9496C44.3391 55.6212 44.0354 57.312 43.9459 58.8537C43.8346 60.8009 43.9068 62.8757 44.197 64.9244C44.4602 66.9655 44.9371 68.7904 45.5813 70.4097C46.3294 72.3574 47.3471 74.122 48.668 75.5306C49.6685 76.677 50.778 77.6254 51.9458 78.3902C51.364 79.2013 49.7198 80.9813 47.2805 79.441C46.0569 78.6677 47.4435 76.1183 47.4435 76.1183C43.0363 77.7577 43.0186 79.3438 44.538 81.277C44.9679 81.8876 44.4942 82.4889 43.5184 82.8884C43.2398 83.0028 41.4363 83.7466 42.0274 86.6432C42.244 87.7046 43.0041 88.5577 43.7485 88.9604C44.7569 86.2914 51.3342 85.0015 51.9001 84.8006C54.3674 83.9241 54.6869 80.9201 54.7214 79.8329C58.5575 81.3588 62.5805 81.177 65.228 79.6722C64.016 79.1775 63.0197 78.1417 62.5931 76.7527C61.8394 74.3004 63.1427 71.6776 65.5042 70.8956C67.8653 70.1125 70.3903 71.466 71.1439 73.9183C71.6004 75.4044 71.2985 76.9504 70.4667 78.1141C71.1975 77.4914 71.8193 76.8779 72.3237 76.2767C73.1365 75.3063 73.5091 74.349 73.7141 73.4352C73.9787 72.256 73.8743 69.7687 72.8808 68.6152C72.8808 68.6152 76.1995 69.1529 78.1204 65.7504C80.4824 61.5667 76.8171 55.9052 72.0592 57.3166ZM51.4828 69.4445C50.2252 69.1109 49.0672 68.3779 48.1454 67.1379C45.865 64.0727 45.122 59.2564 46.0788 54.9713C46.8813 55.4712 47.8054 55.7291 48.8204 55.6301C47.3541 60.814 49.8637 63.0047 50.7203 63.7312C50.7901 63.791 51.6644 67.1365 51.4828 69.4445ZM53.6612 69.6528C55.4587 66.9618 56.0232 63.2131 56.0232 63.2131C59.1454 62.3838 61.2032 56.2099 54.8606 55.4619C56.713 57.0172 57.2356 60.2529 55.237 60.7622C52.9607 61.3429 49.7729 57.1181 51.9248 54.0612C55.9347 48.3643 61.525 52.8484 62.5493 57.0223C64.1227 63.4368 58.9861 69.315 53.6612 69.6528Z" fill="#1C6C42"/>
<path d="M125.363 32.9402C123.604 32.9734 121.844 33.0418 120.083 33.0756C118.716 33.0418 117.316 32.9734 115.979 32.9402V33.7852C117.022 33.7852 118.391 33.752 118.748 34.9376C119.041 35.851 119.041 38.3556 119.041 39.4368V48.9105C119.041 49.9938 119.041 52.4984 118.748 53.411C118.391 54.5614 117.022 54.5614 115.979 54.5614V55.3408C117.445 55.3055 118.911 55.2392 120.41 55.2025C122.331 55.2392 124.288 55.3055 126.209 55.3408C132.921 55.5086 137.45 51.7853 137.45 44.6123C137.45 37.2708 132.238 32.8062 125.363 32.9402ZM126.569 54.4274C125.33 54.4274 123.669 54.2898 122.919 53.1388C122.267 52.1598 122.398 50.5341 122.398 49.3837V35.1386C122.398 34.8685 122.398 34.2937 122.592 34.0906C122.886 33.7852 124.158 33.8536 124.549 33.8536C131.521 33.8536 133.378 38.4543 133.378 45.1547C133.378 50.1617 132.27 54.4274 126.569 54.4274Z" fill="#231F20"/>
<path d="M140.571 39.506V40.1817C143.047 40.1817 143.113 40.9258 143.113 43.3964V51.4475C143.113 53.9182 143.047 54.6637 140.571 54.6637V55.3408C141.907 55.3048 143.243 55.2717 144.579 55.2717C145.914 55.2717 147.25 55.3048 148.587 55.3408V54.6637C146.11 54.6637 146.044 53.9182 146.044 51.4475V43.3964C146.044 40.9258 146.11 40.1817 148.587 40.1817V39.506C147.25 39.5384 145.914 39.5716 144.579 39.5716C143.243 39.5716 141.907 39.5384 140.571 39.506Z" fill="#231F20"/>
<path d="M174.778 39.5054C173.834 39.5378 172.889 39.5717 171.944 39.5717C171.195 39.5717 170.022 39.5378 169.239 39.5054V40.1818C170.315 40.3165 171.52 40.4512 171.52 41.8054C171.52 42.2102 171.389 43.1229 170.804 44.7493L168.295 51.8863H168.23L164.124 39.5717H163.342L159.172 51.8863H159.107L156.402 43.4981C156.175 42.7187 155.882 42.1439 155.882 41.2961C155.882 40.1818 157.282 40.1818 158.097 40.1818V39.5054C156.826 39.5378 155.523 39.5717 154.252 39.5717C153.015 39.5717 151.809 39.5378 150.604 39.5054V40.1818C152.852 40.5542 152.852 41.737 153.861 44.6802L157.674 55.7119H158.651L162.69 44.037H162.756L166.732 55.7119H167.708L172.498 42.2786C172.955 41.0267 173.28 40.2481 174.778 40.1818V39.5054Z" fill="#231F20"/>
<path d="M188.323 51.8216L183.306 39.131H182.361L178.191 49.0123C176.92 51.9894 176.497 54.6639 174.087 54.6639V55.3403C175.031 55.3044 175.975 55.2712 176.92 55.2712C177.864 55.2712 178.81 55.3044 179.755 55.3403V54.6639C178.907 54.6639 177.637 54.6639 177.637 53.5136C177.637 52.7681 178.061 51.7193 178.386 50.8391L178.81 49.6556H184.609L185.75 52.7342C185.88 53.1059 186.011 53.4769 186.011 53.8846C186.011 54.6639 185.033 54.6639 183.86 54.6639V55.3403C185.066 55.3044 186.271 55.2712 187.478 55.2712C188.714 55.2712 189.92 55.3044 191.159 55.3403V54.6639C189.237 54.6639 189.105 53.783 188.323 51.8216ZM179.3 48.7422L181.84 42.5482L184.218 48.7422H179.3Z" fill="#231F20"/>
<path d="M204.577 39.5054V40.1818C206.727 40.1818 207.28 40.5542 207.28 43.2936V51.5845H207.216L197.638 39.5054C196.724 39.5378 195.812 39.5717 194.999 39.5717C194.184 39.5717 193.499 39.5378 192.978 39.5054V40.1818C193.955 40.2156 194.999 40.5203 195.617 41.3321V51.5492C195.617 54.2893 195.063 54.6631 192.913 54.6631V55.3402C193.955 55.305 194.965 55.2718 196.008 55.2718C197.247 55.2718 198.256 55.305 199.298 55.3402V54.6631C197.148 54.6631 196.594 54.2893 196.594 51.5492V42.6172H196.66L207.28 55.7119H208.258V43.2936C208.258 40.5542 208.812 40.1818 210.995 40.1818V39.5054C209.921 39.5378 208.91 39.5717 207.673 39.5717C206.63 39.5717 205.62 39.5378 204.577 39.5054Z" fill="#231F20"/>
<path d="M230.341 39.1304C225.062 39.1304 221.837 42.482 221.837 47.4212C221.837 52.3605 225.062 55.7114 230.341 55.7114C235.586 55.7114 238.812 52.3605 238.812 47.4212C238.812 42.482 235.586 39.1304 230.341 39.1304ZM230.308 55.035C226.497 55.035 225.193 51.2793 225.193 47.4212C225.193 43.5639 226.497 39.8082 230.308 39.8082C234.152 39.8082 235.457 43.5639 235.457 47.4212C235.457 51.2793 234.152 55.035 230.308 55.035Z" fill="#231F20"/>
<path d="M244.995 39.5711C243.659 39.5711 242.323 39.5386 240.987 39.5055V40.1819C243.463 40.1819 243.529 40.9253 243.529 43.396V51.447C243.529 53.9177 243.463 54.6639 240.987 54.6639V55.3403C242.323 55.3044 243.659 55.2712 244.995 55.2712C246.33 55.2712 247.667 55.3044 249.003 55.3403V54.6639C246.526 54.6639 246.462 53.9177 246.462 51.447V47.7265C249.328 47.7265 250.143 48.1314 250.273 50.6352H250.925C250.893 49.4524 250.86 48.3021 250.86 47.1157C250.86 46.0352 250.893 44.9173 250.925 43.8361H250.273C250.11 46.7116 249.165 47.0502 246.462 47.0502V40.6199C246.462 40.2813 246.625 40.1819 247.047 40.1819H249.851C252.586 40.1819 253.401 41.2963 253.923 43.5307H254.477L254.15 39.5055C251.153 39.5386 247.667 39.5711 244.995 39.5711Z" fill="#231F20"/>
<path d="M264.048 39.506V43.5996H264.7C264.831 41.4674 265.514 40.3502 267.99 40.3502H269.848C270.435 40.3502 270.792 40.4186 270.792 40.8242V51.4475C270.792 53.9182 270.727 54.6637 268.251 54.6637V55.3408C269.586 55.3048 270.924 55.2717 272.258 55.2717C273.594 55.2717 274.931 55.3048 276.266 55.3408V54.6637C273.79 54.6637 273.725 53.9182 273.725 51.4475V40.8242C273.725 40.4186 274.083 40.3502 274.669 40.3502H276.526C279.003 40.3502 279.687 41.4674 279.818 43.5996H280.47V39.506C277.536 39.5384 274.898 39.5716 272.258 39.5716C269.62 39.5716 266.981 39.5384 264.048 39.506Z" fill="#231F20"/>
<path d="M293.855 39.506V40.1817C296.331 40.1817 296.397 40.9258 296.397 43.3964V46.6789H287.957V43.3964C287.957 40.9258 288.023 40.1817 290.499 40.1817V39.506C289.163 39.5384 287.827 39.5716 286.49 39.5716C285.156 39.5716 283.82 39.5384 282.484 39.506V40.1817C284.961 40.1817 285.026 40.9258 285.026 43.3964V51.4475C285.026 53.9182 284.961 54.6637 282.484 54.6637V55.3408C283.82 55.3048 285.156 55.2717 286.49 55.2717C287.827 55.2717 289.163 55.3048 290.499 55.3408V54.6637C288.023 54.6637 287.957 53.9182 287.957 51.4475V47.593H296.397V51.4475C296.397 53.9182 296.331 54.6637 293.855 54.6637V55.3408C295.191 55.3048 296.527 55.2717 297.864 55.2717C299.198 55.2717 300.534 55.3048 301.871 55.3408V54.6637C299.394 54.6637 299.328 53.9182 299.328 51.4475V43.3964C299.328 40.9258 299.394 40.1817 301.871 40.1817V39.506C300.534 39.5384 299.198 39.5716 297.864 39.5716C296.527 39.5716 295.191 39.5384 293.855 39.506Z" fill="#231F20"/>
<path d="M312.681 54.663C310.465 54.663 309.456 54.0881 309.456 52.327V47.3553C312.356 47.3553 313.137 47.7594 313.266 50.2633H313.919C313.887 49.0805 313.854 47.9301 313.854 46.7445C313.854 45.561 313.887 44.3754 313.919 43.225H313.266C313.104 46.2021 312.323 46.6782 309.456 46.6782V40.6189C309.456 40.2803 309.619 40.1816 310.043 40.1816H312.844C315.45 40.1816 316.232 40.7903 316.591 43.5304H317.145V39.5052C314.147 39.5377 310.661 39.5715 307.99 39.5715C306.654 39.5715 305.318 39.5377 303.981 39.5052V40.1816C306.457 40.1816 306.523 40.9243 306.523 43.3957V51.4461C306.523 53.9175 306.457 54.663 303.981 54.663V55.3394C305.318 55.3041 306.654 55.2716 307.99 55.2716C311.378 55.2716 314.798 55.3041 318.122 55.3394L318.317 51.0095H317.667C317.178 54.2892 315.744 54.663 312.681 54.663Z" fill="#231F20"/>
<path d="M328.865 32.9398V33.7184C329.908 33.7184 331.243 33.7184 331.667 34.8681C331.993 35.7829 331.993 38.2867 331.993 39.3679V48.91C331.993 49.9941 331.993 52.4979 331.667 53.4106C331.243 54.561 329.908 54.561 328.865 54.561V55.3403C330.493 55.3051 332.155 55.2388 333.783 55.2028C335.349 55.2388 336.945 55.3051 338.476 55.3403V54.561C337.434 54.561 336.097 54.561 335.674 53.4106C335.349 52.4979 335.349 49.9941 335.349 48.91V39.3679C335.349 38.2867 335.349 35.7829 335.674 34.8681C336.097 33.7184 337.434 33.7184 338.476 33.7184V32.9398C336.847 32.9736 335.218 33.0413 333.555 33.0745C331.993 33.0413 330.428 32.9736 328.865 32.9398Z" fill="#231F20"/>
<path d="M343.784 42.246C343.784 40.7902 344.858 39.8077 346.39 39.8077C349.029 39.8077 349.779 41.7727 350.756 43.938H351.277L350.984 39.436H350.723L350.235 40.5532C349.161 39.7414 347.661 39.1306 346.294 39.1306C343.164 39.1306 341.308 41.0604 341.308 43.4288C341.308 49.1135 349.779 47.7594 349.779 52.0251C349.779 53.8842 348.574 55.0346 346.358 55.0346C343.751 55.0346 342.154 52.8369 341.829 50.2639H341.21V55.2716H341.502L342.284 54.2566C343.296 55.0678 344.99 55.7124 346.26 55.7124C349.258 55.7124 352.255 54.3582 352.255 50.8387C352.255 45.3246 343.784 46.0017 343.784 42.246Z" fill="#231F20"/>
<path d="M371.082 39.5053L365.771 51.3812L360.429 39.5053C359.482 39.5377 358.571 39.5716 357.625 39.5716C356.778 39.5716 355.899 39.5377 354.955 39.5053V40.1824C356.421 40.1824 357.593 40.6881 357.593 42.6502V51.5491C357.593 54.2892 357.04 54.663 354.89 54.663V55.3408C355.932 55.3041 356.942 55.2717 357.984 55.2717C359.223 55.2717 360.232 55.3041 361.275 55.3408V54.663C359.125 54.663 358.571 54.2892 358.571 51.5491V41.8384H358.636L364.533 55.137H364.892L370.919 42.1107H370.985V51.4468C370.985 53.9182 370.919 54.663 368.443 54.663V55.3408C369.779 55.3041 371.114 55.2717 372.451 55.2717C373.786 55.2717 375.122 55.3041 376.458 55.3408V54.663C373.982 54.663 373.916 53.9182 373.916 51.4468V42.6502C373.916 40.6881 375.089 40.1824 376.588 40.1824V39.5053C375.61 39.5377 374.731 39.5716 373.884 39.5716C372.94 39.5716 372.027 39.5377 371.082 39.5053Z" fill="#231F20"/>
<path d="M391.927 51.8216L386.91 39.131H385.964L381.794 49.0123C380.524 51.9894 380.1 54.6639 377.69 54.6639V55.3403C378.635 55.3044 379.578 55.2712 380.524 55.2712C381.468 55.2712 382.414 55.3044 383.359 55.3403V54.6639C382.511 54.6639 381.24 54.6639 381.24 53.5136C381.24 52.7681 381.664 51.7193 381.99 50.8391L382.414 49.6556H388.213L389.353 52.7342C389.485 53.1059 389.614 53.4769 389.614 53.8846C389.614 54.6639 388.637 54.6639 387.464 54.6639V55.3403C388.669 55.3044 389.874 55.2712 391.081 55.2712C392.318 55.2712 393.524 55.3044 394.762 55.3403V54.6639C392.84 54.6639 392.709 53.783 391.927 51.8216ZM382.903 48.7422L385.444 42.5482L387.822 48.7422H382.903Z" fill="#231F20"/>
<path d="M397.005 39.506V40.1817C399.481 40.1817 399.546 40.9258 399.546 43.3964V51.4475C399.546 53.9182 399.481 54.6637 397.005 54.6637V55.3408C398.34 55.3048 399.676 55.2717 401.013 55.2717C402.348 55.2717 403.683 55.3048 405.02 55.3408V54.6637C402.542 54.6637 402.478 53.9182 402.478 51.4475V43.3964C402.478 40.9258 402.542 40.1817 405.02 40.1817V39.506C403.683 39.5384 402.348 39.5716 401.013 39.5716C399.676 39.5716 398.34 39.5384 397.005 39.506Z" fill="#231F20"/>
<path d="M416.909 54.6635C413.455 54.6635 413.064 53.9179 413.064 51.1771V43.3962C413.064 40.9248 413.129 40.1821 415.605 40.1821V39.5057C414.268 39.5381 412.933 39.5706 411.598 39.5706C410.261 39.5706 408.925 39.5381 407.591 39.5057V40.1821C410.066 40.1821 410.131 40.9248 410.131 43.3962V51.4465C410.131 53.9179 410.066 54.6635 407.591 54.6635V55.3398C409.349 55.3046 411.989 55.2721 415.246 55.2721C418.309 55.2721 420.265 55.3046 422.024 55.3398L422.187 50.6707H421.567C421.111 52.7351 420.754 54.6635 416.909 54.6635Z" fill="#231F20"/>
<path d="M424.137 39.506V40.1817C426.613 40.1817 426.678 40.9258 426.678 43.3964V51.4475C426.678 53.9182 426.613 54.6637 424.137 54.6637V55.3408C425.472 55.3048 426.808 55.2717 428.144 55.2717C429.479 55.2717 430.815 55.3048 432.152 55.3408V54.6637C429.674 54.6637 429.61 53.9182 429.61 51.4475V43.3964C429.61 40.9258 429.674 40.1817 432.152 40.1817V39.506C430.815 39.5384 429.479 39.5716 428.144 39.5716C426.808 39.5716 425.472 39.5384 424.137 39.506Z" fill="#231F20"/>
<path d="M443.125 32.9398V33.7184C444.168 33.7184 445.502 33.7184 445.927 34.8681C446.253 35.7829 446.253 38.2867 446.253 39.3679V48.91C446.253 49.9941 446.253 52.4979 445.927 53.4106C445.502 54.561 444.168 54.561 443.125 54.561V55.3403C444.753 55.3051 446.416 55.2388 448.043 55.2028C449.608 55.2388 451.205 55.3051 452.737 55.3403V54.561C451.693 54.561 450.357 54.561 449.934 53.4106C449.608 52.4979 449.608 49.9941 449.608 48.91V39.3679C449.608 38.2867 449.608 35.7829 449.934 34.8681C450.357 33.7184 451.693 33.7184 452.737 33.7184V32.9398C451.107 32.9736 449.478 33.0413 447.816 33.0745C446.253 33.0413 444.688 32.9736 443.125 32.9398Z" fill="#231F20"/>
<path d="M470.879 39.5053L465.569 51.3812L460.225 39.5053C459.281 39.5377 458.369 39.5716 457.424 39.5716C456.576 39.5716 455.697 39.5377 454.753 39.5053V40.1824C456.219 40.1824 457.391 40.6881 457.391 42.6502V51.5491C457.391 54.2892 456.838 54.663 454.688 54.663V55.3408C455.73 55.3041 456.739 55.2717 457.782 55.2717C459.02 55.2717 460.029 55.3041 461.073 55.3408V54.663C458.923 54.663 458.369 54.2892 458.369 51.5491V41.8384H458.434L464.332 55.137H464.69L470.717 42.1107H470.781V51.4468C470.781 53.9182 470.717 54.663 468.24 54.663V55.3408C469.575 55.3041 470.913 55.2717 472.249 55.2717C473.584 55.2717 474.919 55.3041 476.255 55.3408V54.663C473.78 54.663 473.714 53.9182 473.714 51.4468V42.6502C473.714 40.6881 474.888 40.1824 476.387 40.1824V39.5053C475.41 39.5377 474.531 39.5716 473.682 39.5716C472.737 39.5716 471.825 39.5377 470.879 39.5053Z" fill="#231F20"/>
<path d="M491.726 51.8216L486.709 39.131H485.762L481.592 49.0123C480.323 51.9894 479.899 54.6639 477.487 54.6639V55.3403C478.431 55.3044 479.377 55.2712 480.323 55.2712C481.265 55.2712 482.212 55.3044 483.155 55.3403V54.6639C482.31 54.6639 481.038 54.6639 481.038 53.5136C481.038 52.7681 481.462 51.7193 481.788 50.8391L482.212 49.6556H488.012L489.151 52.7342C489.281 53.1059 489.411 53.4769 489.411 53.8846C489.411 54.6639 488.436 54.6639 487.261 54.6639V55.3403C488.467 55.3044 489.673 55.2712 490.879 55.2712C492.116 55.2712 493.321 55.3044 494.558 55.3403V54.6639C492.638 54.6639 492.508 53.783 491.726 51.8216ZM482.699 48.7422L485.24 42.5482L487.619 48.7422H482.699Z" fill="#231F20"/>
<path d="M512.507 39.5053L507.195 51.3812L501.853 39.5053C500.906 39.5377 499.995 39.5716 499.049 39.5716C498.204 39.5716 497.324 39.5377 496.379 39.5053V40.1824C497.844 40.1824 499.018 40.6881 499.018 42.6502V51.5491C499.018 54.2892 498.464 54.663 496.312 54.663V55.3408C497.357 55.3041 498.366 55.2717 499.41 55.2717C500.647 55.2717 501.657 55.3041 502.698 55.3408V54.663C500.549 54.663 499.995 54.2892 499.995 51.5491V41.8384H500.059L505.957 55.137H506.315L512.342 42.1107H512.408V51.4468C512.408 53.9182 512.342 54.663 509.867 54.663V55.3408C511.202 55.3041 512.538 55.2717 513.874 55.2717C515.209 55.2717 516.546 55.3041 517.883 55.3408V54.663C515.405 54.663 515.342 53.9182 515.342 51.4468V42.6502C515.342 40.6881 516.513 40.1824 518.013 40.1824V39.5053C517.034 39.5377 516.156 39.5716 515.307 39.5716C514.365 39.5716 513.45 39.5377 512.507 39.5053Z" fill="#231F20"/>
<path d="M533.351 51.8216L528.333 39.131H527.387L523.217 49.0123C521.948 51.9894 521.524 54.6639 519.113 54.6639V55.3403C520.056 55.3044 521.001 55.2712 521.948 55.2712C522.891 55.2712 523.837 55.3044 524.78 55.3403V54.6639C523.935 54.6639 522.663 54.6639 522.663 53.5136C522.663 52.7681 523.087 51.7193 523.413 50.8391L523.837 49.6556H529.637L530.776 52.7342C530.906 53.1059 531.036 53.4769 531.036 53.8846C531.036 54.6639 530.06 54.6639 528.887 54.6639V55.3403C530.092 55.3044 531.298 55.2712 532.504 55.2712C533.741 55.2712 534.946 55.3044 536.184 55.3403V54.6639C534.263 54.6639 534.133 53.783 533.351 51.8216ZM524.325 48.7422L526.865 42.5482L529.245 48.7422H524.325Z" fill="#231F20"/>
<path d="M544.882 39.5711C542.241 39.5711 539.602 39.5386 536.671 39.5055V43.5998H537.323C537.453 41.4669 538.136 40.3497 540.614 40.3497H542.471C543.057 40.3497 543.414 40.4181 543.414 40.8237V51.447C543.414 53.9177 543.35 54.6639 540.873 54.6639V55.3403C542.209 55.3044 543.544 55.2712 544.882 55.2712C546.217 55.2712 547.553 55.3044 548.889 55.3403V54.6639C546.411 54.6639 546.347 53.9177 546.347 51.447V40.8237C546.347 40.4181 546.705 40.3497 547.291 40.3497H549.148C551.625 40.3497 552.309 41.4669 552.439 43.5998H553.091V39.5055C550.161 39.5386 547.522 39.5711 544.882 39.5711Z" fill="#231F20"/>
</g>
<defs>
<clipPath id="clip0_143_5289">
<rect width="553" height="89" fill="white"/>
</clipPath>
</defs>
</svg>
